<?xml version="1.0" encoding="UTF-8" standalone="no"?>
<svg
   xmlns:dc="http://purl.org/dc/elements/1.1/"
   xmlns:cc="http://creativecommons.org/ns#"
   xmlns:rdf="http://www.w3.org/1999/02/22-rdf-syntax-ns#"
   xmlns:svg="http://www.w3.org/2000/svg"
   xmlns="http://www.w3.org/2000/svg"
   xmlns:xlink="http://www.w3.org/1999/xlink"
   xmlns:sodipodi="http://sodipodi.sourceforge.net/DTD/sodipodi-0.dtd"
   xmlns:inkscape="http://www.inkscape.org/namespaces/inkscape"
   style="height:auto;width:auto"
   _viewBox="sp.zoom"
   v-if="repr=='svg'"
   version="1.1"
   id="svg891"
   sodipodi:docname="VueRdc.svg"
   inkscape:version="1.0.2 (e86c870, 2021-01-15)">
  <rect
     id="rect871-1"
     x="192.12712"
     y="56.708984"
     width="29.458279"
     height="276.55695"
     fill="gray"
     stroke="#000000"
     style="fill:#d1a558;fill-opacity:1;stroke-width:0.541722" />
  <metadata
     id="metadata897">
    <rdf:RDF>
      <cc:Work
         rdf:about="">
        <dc:format>image/svg+xml</dc:format>
        <dc:type
           rdf:resource="http://purl.org/dc/dcmitype/StillImage" />
        <dc:title></dc:title>
      </cc:Work>
    </rdf:RDF>
  </metadata>
  <defs
     id="defs895" />
  <sodipodi:namedview
     pagecolor="#ffffff"
     bordercolor="#666666"
     borderopacity="1"
     objecttolerance="10"
     gridtolerance="10"
     guidetolerance="10"
     inkscape:pageopacity="0"
     inkscape:pageshadow="2"
     inkscape:window-width="1920"
     inkscape:window-height="1061"
     id="namedview893"
     showgrid="false"
     inkscape:zoom="0.41703851"
     inkscape:cx="-218.99802"
     inkscape:cy="556.64185"
     inkscape:window-x="-4"
     inkscape:window-y="-4"
     inkscape:window-maximized="1"
     inkscape:current-layer="svg891"
     inkscape:document-rotation="0" />
  <rect
     id="rect5059"
     width="1000"
     height="1000"
     x="0"
     y="0"
     class="svg-fond-vue"
     fill="#ffffff"
     stroke="#000000"
     stroke-width="2px" />
  <rect
     id="rect871"
     x="225.71272"
     y="4.4288421"
     width="29.458279"
     height="276.55695"
     fill="gray"
     stroke="#000000"
     style="fill:#d1a558;fill-opacity:1;stroke-width:0.541722" />
  <image
     sodipodi:absref="G:\Dev\Python\Project\TestVueJs\testvuejs\src\assets\model_svg\ModelTemperature.svg"
     xlink:href="ModelTemperature.svg"
     _proprietes="{'Temperature': {'id':'id128', 'attribut': 'T'}, 'Nom':'Toto'}"
     _repr="repr"
     composant="modeltemperature"
     y="89.718109"
     x="309.73337"
     id="image1123"
     height="35"
     width="300"
     inkscape:svg-dpi="200"
     preserveAspectRatio="none" />
  <image
     sodipodi:absref="G:\Dev\Python\Project\TestVueJs\testvuejs\src\assets\model_svg\ModelLumiere.svg"
     xlink:href="ModelLumiere.svg"
     preserveAspectRatio="none"
     inkscape:svg-dpi="200"
     width="300"
     height="35"
     id="image2813"
     x="615.97156"
     y="828.66473"
     composant="modellumiere"
     _repr="repr"
     _proprietes="{'Etat': {'id':'id126', 'attribut': 'E'}, 'Nom':'Salon'}" />
  <rect
     id="rect871-5"
     x="0.14427634"
     y="0.14427634"
     width="29.169725"
     height="656.07007"
     fill="gray"
     stroke="#000000"
     style="fill:#d1a558;fill-opacity:1;stroke-width:0.830275" />
  <rect
     id="rect871-10"
     x="0"
     y="778.68066"
     width="29.458279"
     height="221.31935"
     fill="gray"
     stroke="#000000"
     style="fill:#d1a558;fill-opacity:1;stroke-width:0.484612" />
  <rect
     id="rect871-0"
     x="29.380272"
     y="970.75848"
     width="438.45288"
     height="29.319515"
     fill="gray"
     stroke="#000000"
     style="fill:#d1a558;fill-opacity:1;stroke-width:0.680486" />
  <rect
     id="rect871-0-8"
     x="609.44519"
     y="970.73004"
     width="390.55484"
     height="29.269922"
     fill="gray"
     stroke="#000000"
     style="fill:#d1a558;fill-opacity:1;stroke-width:0.641699" />
  <rect
     id="rect871-0-0"
     x="255.27208"
     y="4.5299206"
     width="742.77893"
     height="29.117357"
     fill="gray"
     stroke="#000000"
     style="fill:#d1a558;fill-opacity:1;stroke-width:0.882643" />
  <rect
     id="rect871-5-1"
     x="968.96088"
     y="33.726921"
     width="29.010443"
     height="937.05988"
     fill="gray"
     stroke="#000000"
     style="fill:#d1a558;fill-opacity:1;stroke-width:0.989558" />
  <rect
     id="rect871-0-1"
     x="29.456436"
     y="778.67883"
     width="433.66086"
     height="29.323202"
     fill="gray"
     stroke="#000000"
     style="fill:#d1a558;fill-opacity:1;stroke-width:0.6768" />
  <rect
     id="rect871-0-1-6"
     x="613.83887"
     y="779.03009"
     width="358.31747"
     height="29.323202"
     fill="gray"
     stroke="#000000"
     style="fill:#d1a558;fill-opacity:1;stroke-width:0.615204" />
  <path
     d="M 352.6261,519.2401 C 352.40232,519.28372 349.33027,519.4582 345.81062,519.65448 342.29096,519.82896 333.68512,520.28696 326.6865,520.63591 319.68789,521.00667 309.25104,521.55191 303.49346,521.83543 297.73588,522.14077 290.77795,522.48972 288.0314,522.59876 285.28485,522.686 282.68074,522.9041 282.23313,523.03496 281.78556,523.18763 281.09384,523.66743 280.68697,524.10362 L 279.93419,524.91058 279.16108,524.14724 278.40835,523.40572 265.87594,523.55839 C 258.97907,523.64562 250.007,523.79829 245.9177,523.90734 230.00808,524.34353 215.19709,524.12543 204.71951,523.34029 197.90402,522.81686 194.81161,522.72962 193.99782,523.01315 193.61127,523.14401 193.06195,523.31848 192.79747,523.3621 186.06337,524.7361 181.16028,527.13515 178.25096,530.49381 177.05061,531.88962 176.39959,532.17315 172.87993,532.82743 169.88927,533.39448 168.20062,534.26686 166.34925,536.1861 165.59651,536.94943 164.64027,538.12715 164.17238,538.75962 L 163.35859,539.93733 164.53857,555.85829 C 165.18959,564.60391 165.75928,572.23724 165.8203,572.80429 165.90168,573.7421 165.8203,573.93838 165.08789,574.98524 161.83271,579.60886 161.71063,584.7559 164.76235,589.66305 165.31167,590.53543 166.26786,591.75676 166.85787,592.34562 L 167.97684,593.41428 168.85165,611.38533 169.74683,629.35638 168.99409,630.07609 C 167.52927,631.42828 167.10203,633.65285 166.87824,641.00266 166.71548,645.73533 166.38994,648.19981 165.6779,649.87914 165.04719,651.34037 165.02683,651.49304 165.51513,651.49304 166.10514,651.49304 173.00201,653.36866 177.15232,654.65542 191.29196,659.03914 213.61019,667.32675 228.99087,673.93504 230.6998,674.67657 232.12393,675.26542 232.18499,675.26542 232.246,675.26542 232.34775,674.89466 232.40877,674.41485 232.63255,672.9318 232.59186,672.95361 235.29772,673.58609 L 237.73911,674.15314 239.12254,673.69514 C 240.44497,673.28075 240.52635,673.28075 240.72981,673.62971 240.83152,673.8478 241.15701,674.3058 241.44185,674.65475 L 241.95048,675.28723 243.67978,674.72018 C 247.48428,673.49885 256.88354,671.51418 269.09042,669.37685 313.19789,661.61266 399.175,650.2499 418.72631,649.59561 L 422.97838,649.46475 422.83594,645.51723 C 422.59183,638.27647 421.63563,633.32571 419.4384,627.85152 419.09254,627.00095 418.70599,626.194 418.56355,626.08495 418.38045,625.93228 418.21769,623.05343 417.97358,616.18343 L 417.62767,606.5 416.24424,604.86428 C 410.66979,598.256 409.16428,594.70104 408.9405,587.48209 L 408.83874,584.42876 410.34426,582.79305 C 412.68393,580.21953 413.7622,577.60238 413.7622,574.52724 413.7622,572.608 413.43667,571.12495 412.56186,569.14029 411.95152,567.74448 411.93115,567.72267 410.26287,566.8721 408.98114,566.21781 408.71667,565.99972 409.14391,565.99972 409.69323,565.99972 409.91701,565.62896 409.44908,565.45448 409.30668,565.41086 400.25323,564.32038 389.34845,563.05543 378.44362,561.79048 369.12574,560.7 368.6578,560.63457 L 367.80332,560.50372 367.39644,558.60629 C 366.86744,556.14181 366.31813,552.15067 365.54507,545.06257 364.30403,533.76524 363.20539,528.37829 361.33369,524.51801 359.36024,520.48324 356.24746,518.58582 352.6261,519.2401 Z M 284.30833,539.43572 C 284.24727,539.61019 284.18625,539.54476 284.18625,539.30486 284.16589,539.06496 284.22695,538.9341 284.28796,539.02134 284.34902,539.08676 284.36935,539.28305 284.30833,539.43572 Z M 285.56969,546.80733 C 286.22072,551.88895 286.9735,561.09257 286.77004,561.31067 286.72935,561.3761 286.52589,559.43505 286.32247,556.99238 285.93592,552.15067 285.16282,545.3461 284.67451,542.44543 284.51175,541.42038 284.38971,540.39534 284.38971,540.15543 284.43041,539.43572 285.12213,543.40505 285.56969,546.80733 Z M 362.69676,561.44152 C 361.25231,562.13943 360.37745,563.16448 359.7061,565.01829 359.36024,565.99972 359.40094,565.10553 359.74679,564.01505 359.92989,563.49162 360.31644,562.7719 360.62161,562.42295 361.23194,561.74686 362.57473,560.98353 363.20539,560.98353 363.44954,560.98353 363.24608,561.17981 362.69676,561.44152 Z M 359.15678,567.54819 C 358.87194,569.16209 358.87194,569.16209 358.85162,568.04981 358.83129,567.15562 359.19748,565.67257 359.38057,565.86886 359.40094,565.89067 359.29918,566.654 359.15678,567.54819 Z M 179.87855,571.19038 C 179.98026,571.36486 172.0865,572.62981 171.94406,572.47714 171.86268,572.3899 178.59682,571.08134 179.32923,571.03772 179.57338,571.0159 179.81749,571.10314 179.87855,571.19038 Z M 358.4447,574.41819 C 358.18022,575.50867 357.42749,577.23162 357.28504,577.05714 357.24439,577.01352 357.42749,576.44648 357.71228,575.79219 357.99713,575.1379 358.28197,574.28733 358.34299,573.89476 358.42437,573.50219 358.52612,573.21867 358.56677,573.28409 358.62783,573.34953 358.56677,573.85114 358.4447,574.41819 Z M 232.53084,577.84229 C 235.2774,578.91095 237.25085,580.91743 238.16635,583.57819 238.53253,584.58143 239.2243,588.39809 239.1836,589.16143 239.1836,589.3141 238.91908,588.57257 238.59359,587.52571 237.37292,583.6 235.35878,580.21953 233.48704,578.95457 233.08016,578.69286 232.26637,578.30028 231.69673,578.08219 231.12704,577.8859 230.6591,577.646 230.6591,577.53695 230.6591,577.23162 231.16773,577.29705 232.53084,577.84229 Z M 293.46349,582.42228 C 296.16931,582.70581 298.44792,582.98933 298.50898,583.05476 298.57,583.12019 298.18345,583.142 297.6545,583.09838 297.10518,583.05476 294.60278,582.94571 292.05968,582.88029 287.68554,582.74943 287.42107,582.72762 287.42107,582.33505 287.42107,581.81162 287.27867,581.81162 293.46349,582.42228 Z M 309.12896,583.03295 C 308.64066,583.33829 307.46068,583.70905 307.64377,583.49095 307.80654,583.31648 308.98652,582.83667 309.29173,582.81486 309.41376,582.81486 309.33242,582.90209 309.12896,583.03295 Z M 335.21096,597.38362 C 335.10925,598.99752 334.98718,600.37152 334.90579,600.43695 334.82441,600.50238 334.82441,599.49914 334.90579,598.19057 334.96685,596.882 335.04824,595.00638 335.04824,594.04676 335.08893,592.36743 335.08893,592.34562 335.23133,593.37066 335.33304,593.95952 335.31271,595.76971 335.21096,597.38362 Z M 315.19171,593.39248 C 314.86618,593.4361 310.47171,593.76324 305.42622,594.134 300.40105,594.50476 291.10349,595.20267 284.79659,595.68247 278.48969,596.16228 273.17972,596.51124 272.99663,596.48943 272.08108,596.27133 295.35556,594.3739 307.15551,593.69781 309.45446,593.56695 311.61104,593.4361 311.93653,593.39248 312.28239,593.34886 313.27928,593.32704 314.17446,593.32704 315.06964,593.32704 315.53757,593.37066 315.19171,593.39248 Z M 174.64992,594.04676 C 174.5889,594.11219 174.40581,594.134 174.26337,594.06857 174.1006,594.00314 174.16166,593.93771 174.38544,593.93771 174.60923,593.9159 174.7313,593.98133 174.64992,594.04676 Z M 196.07297,596.64209 C 206.42848,597.90705 215.90913,599.06295 217.12985,599.19381 218.37088,599.32467 219.42879,599.47733 219.51017,599.56457 219.69326,599.73905 210.1516,599.28105 206.3471,598.9539 202.27817,598.58314 196.96815,597.92886 192.93987,597.27457 189.27782,596.70752 176.19613,594.46114 175.32132,594.26485 174.01926,593.98133 178.65783,594.50476 196.07297,596.64209 Z M 241.74702,596.09686 242.76428,596.55486 241.95048,596.424 C 241.50291,596.33676 240.99429,596.14048 240.83152,595.966 240.44497,595.57343 240.54667,595.57343 241.74702,596.09686 Z M 227.20051,599.58638 C 227.20051,600.02257 226.79363,599.78267 225.73569,598.69219 L 224.65742,597.60172 225.93915,598.4959 C 226.63087,598.97571 227.20051,599.47733 227.20051,599.58638 Z M 407.61807,604.27543 C 407.80116,604.51533 407.5977,604.36266 407.17046,603.92647 406.70253,603.44666 406.43805,603.01048 406.5398,602.85781 406.64151,602.70514 406.78391,602.81419 406.98737,603.22857 407.15014,603.55571 407.43498,604.03552 407.61807,604.27543 Z M 400.43636,605.91114 C 400.76185,606.06381 400.72116,606.10743 400.15152,606.10743 399.76497,606.12924 388.6771,607.30695 375.53435,608.74638 362.37127,610.18581 348.45542,611.71247 344.5899,612.12685 340.72443,612.56304 337.28616,612.95562 336.9403,613.02104 336.57407,613.08647 336.24858,613.06466 336.16715,612.93381 336.10614,612.82476 336.55375,612.67209 337.2251,612.60666 337.8558,612.51943 345.56647,611.66886 354.3554,610.68743 363.14437,609.72781 376.73469,608.20114 384.56743,607.32876 399.82598,605.62762 399.82598,605.62762 400.43636,605.91114 Z M 324.0417,614.19876 C 324.0417,614.30781 323.98064,614.41686 323.89926,614.41686 323.79755,614.41686 316.63617,615.202 307.96931,616.16161 299.30241,617.09942 284.51175,618.73514 275.11248,619.76018 265.71317,620.78523 256.29353,621.83209 254.17768,622.05019 252.06183,622.29009 250.27148,622.44276 250.23078,622.37733 250.16977,622.3119 250.21046,622.26828 250.33254,622.26828 250.45461,622.26828 250.90218,622.09381 251.32942,621.89752 251.93976,621.614 260.66767,620.63257 287.62453,617.77552 307.15551,615.72542 323.32962,614.02428 323.59409,614.00247 323.83824,614.00247 324.0417,614.0679 324.0417,614.19876 Z M 411.05634,620.45809 C 410.99528,620.67619 410.95459,620.54533 410.95459,620.19638 410.95459,619.82562 410.99528,619.67295 411.05634,619.8038 411.09704,619.95647 411.09704,620.26181 411.05634,620.45809 Z M 411.91079,626.17219 C 411.93115,626.21581 412.86703,626.194 413.98599,626.15038 415.12527,626.10676 415.87805,626.12857 415.67459,626.21581 415.16597,626.41209 385.76778,629.96704 385.48293,629.858 385.34053,629.81438 390.95567,629.07285 397.93396,628.20047 404.91221,627.32809 410.83256,626.56476 411.11736,626.49933 L 411.64631,626.39028 411.38184,624.38381 C 411.01565,621.26504 411.11736,620.52352 411.5446,623.46781 411.74806,624.90723 411.91079,626.12857 411.91079,626.17219 Z M 249.64082,625.86685 C 249.74253,628.41857 249.74253,628.50581 249.57976,626.73924 249.25427,623.20609 249.2339,622.68266 249.37634,622.85714 249.47805,622.94438 249.57976,624.29657 249.64082,625.86685 Z M 249.92562,630.81762 C 249.88492,631.10114 249.84423,630.92666 249.84423,630.44685 249.82391,629.96704 249.8646,629.74895 249.92562,629.94523 249.96631,630.16333 249.96631,630.5559 249.92562,630.81762 Z M 384.8319,630.05428 C 384.62844,630.0979 384.26226,630.0979 384.01811,630.05428 383.75363,630.01066 383.9164,629.96704 384.36397,629.96704 384.81154,629.94523 385.015,629.98885 384.8319,630.05428 Z M 383.0009,630.27238 C 382.79744,630.31599 382.43121,630.31599 382.18706,630.27238 381.92258,630.22876 382.08535,630.18514 382.53296,630.18514 382.98053,630.16333 383.18399,630.20695 383.0009,630.27238 Z M 381.27156,630.49047 C 381.12916,630.53409 380.84431,630.53409 380.66122,630.49047 380.45776,630.42504 380.57984,630.38143 380.90537,630.38143 381.25123,630.38143 381.39363,630.42504 381.27156,630.49047 Z M 379.23709,630.70857 C 379.09469,630.75218 378.80985,630.75218 378.62676,630.70857 378.4233,630.64314 378.54537,630.59952 378.87086,630.59952 379.21677,630.59952 379.35917,630.64314 379.23709,630.70857 Z M 377.69089,630.90486 C 377.62987,630.97028 377.44673,630.99209 377.30433,630.92666 377.14157,630.86124 377.20263,630.7958 377.42641,630.7958 377.65019,630.774 377.77227,630.83942 377.69089,630.90486 Z"
     id="path6496"
     style="fill:#d91212;fill-opacity:1;stroke:none;stroke-width:0.0210644" />
  <g
     id="g6551"
     transform="translate(1076.6391,-158.25877)">
    <rect
       style="opacity:0.981221;fill:#3d9699;fill-opacity:1;stroke:#0b2d5a;stroke-width:3.36378;stroke-linejoin:round;stroke-miterlimit:4.1"
       id="rect6522"
       width="137.33899"
       height="271.2869"
       x="-266.20026"
       y="262.80917"
       rx="10"
       ry="10" />
    <rect
       style="opacity:0.981221;fill:#3d9699;fill-opacity:1;stroke:#0b2d5a;stroke-width:3.36378;stroke-linejoin:round;stroke-miterlimit:4.1"
       id="rect6524"
       width="110.6013"
       height="110.30158"
       x="-263.16513"
       y="285.04562"
       rx="10"
       ry="10" />
    <rect
       style="opacity:0.981221;fill:#3d9699;fill-opacity:1;stroke:#0b2d5a;stroke-width:3.36378;stroke-linejoin:round;stroke-miterlimit:4.1"
       id="rect6524-3"
       width="110.6013"
       height="110.30158"
       x="-263.3815"
       y="399.28006"
       rx="10"
       ry="10" />
  </g>
</svg>
