<svg id="svg891" style="height:auto;width:auto" _viewBox="sp.zoom" v-if="repr=='svg'" version="1.1" xmlns="http://www.w3.org/2000/svg" xmlns:xlink="http://www.w3.org/1999/xlink">
 <rect id="rect871-1" x="192.13" y="56.709" width="29.458" height="276.56" fill="gray" stroke="#000" style="fill:#d1a558;stroke-width:.54172"/>
 <rect id="rect5059" class="svg-fond-vue" width="1e3" height="1e3" fill="#fff" stroke="#000" stroke-width="2px"/>
 <rect id="rect871" x="225.71" y="4.4288" width="29.458" height="276.56" fill="gray" stroke="#000" style="fill:#d1a558;stroke-width:.54172"/>
 <image id="image1123" x="309.73" y="89.718" width="300" height="35" _proprietes="{'Temperature': {'id':'id128', 'attribut': 'T'}, 'Nom':'Toto'}" _repr="repr" composant="modeltemperature" preserveAspectRatio="none" xlink:href="file:///G:/Dev/Python/Project/TestVueJs/testvuejs/src/assets/model_svg/ModelTemperature.svg"/>
 <image id="image2813" x="615.97" y="828.66" width="300" height="35" _proprietes="{'Etat': {'id':'id126', 'attribut': 'E'}, 'Nom':'Salon'}" _repr="repr" composant="modellumiere" preserveAspectRatio="none" xlink:href="file:///G:/Dev/Python/Project/TestVueJs/testvuejs/src/assets/model_svg/ModelLumiere.svg"/>
 <rect id="rect871-5" x=".14428" y=".14428" width="29.17" height="656.07" fill="gray" stroke="#000" style="fill:#d1a558;stroke-width:.83028"/>
 <rect id="rect871-10" y="778.68" width="29.458" height="221.32" fill="gray" stroke="#000" style="fill:#d1a558;stroke-width:.48461"/>
 <rect id="rect871-0" x="29.38" y="970.76" width="438.45" height="29.32" fill="gray" stroke="#000" style="fill:#d1a558;stroke-width:.68049"/>
 <rect id="rect871-0-8" x="609.45" y="970.73" width="390.55" height="29.27" fill="gray" stroke="#000" style="fill:#d1a558;stroke-width:.6417"/>
 <rect id="rect871-0-0" x="255.27" y="4.5299" width="742.78" height="29.117" fill="gray" stroke="#000" style="fill:#d1a558;stroke-width:.88264"/>
 <rect id="rect871-5-1" x="968.96" y="33.727" width="29.01" height="937.06" fill="gray" stroke="#000" style="fill:#d1a558;stroke-width:.98956"/>
 <rect id="rect871-0-1" x="29.456" y="778.68" width="433.66" height="29.323" fill="gray" stroke="#000" style="fill:#d1a558;stroke-width:.6768"/>
 <rect id="rect871-0-1-6" x="613.84" y="779.03" width="358.32" height="29.323" fill="gray" stroke="#000" style="fill:#d1a558;stroke-width:.6152"/>
 <path id="path6496" d="m352.63 519.24c-0.22378 0.04362-3.2958 0.2181-6.8155 0.41438-3.5197 0.17448-12.126 0.63248-19.124 0.98143-6.9986 0.37076-17.435 0.916-23.193 1.1995-5.7576 0.30534-12.716 0.65429-15.462 0.76333-2.7466 0.08724-5.3507 0.30534-5.7983 0.4362-0.44757 0.15267-1.1393 0.63247-1.5462 1.0687l-0.75278 0.80696-0.77311-0.76334-0.75273-0.74152-12.532 0.15267c-6.8969 0.08723-15.869 0.2399-19.958 0.34895-15.91 0.43619-30.721 0.21809-41.198-0.56705-6.8155-0.52343-9.9079-0.61067-10.722-0.32714-0.38655 0.13086-0.93587 0.30533-1.2004 0.34895-6.7341 1.374-11.637 3.773-14.547 7.1317-1.2004 1.3958-1.8514 1.6793-5.371 2.3336-2.9907 0.56705-4.6793 1.4394-6.5307 3.3587-0.75274 0.76333-1.709 1.941-2.1769 2.5735l-0.81379 1.1777 1.18 15.921c0.65102 8.7456 1.2207 16.379 1.2817 16.946 0.08138 0.93781 0 1.1341-0.73241 2.181-3.2552 4.6236-3.3773 9.7707-0.32554 14.678 0.54932 0.87238 1.5055 2.0937 2.0955 2.6826l1.119 1.0687 0.87481 17.971 0.89518 17.971-0.75274 0.71971c-1.4648 1.3522-1.8921 3.5768-2.1158 10.927-0.16276 4.7327-0.4883 7.1972-1.2003 8.8765-0.63071 1.4612-0.65107 1.6139-0.16277 1.6139 0.59001 0 7.4869 1.8756 11.637 3.1624 14.14 4.3837 36.458 12.671 51.839 19.28 1.7089 0.74153 3.1331 1.3304 3.1941 1.3304 0.06101 0 0.16276-0.37076 0.22378-0.85057 0.22378-1.483 0.18309-1.4612 2.889-0.82876l2.4414 0.56705 1.3834-0.458c1.3224-0.41439 1.4038-0.41439 1.6073-0.06543 0.10171 0.21809 0.4272 0.67609 0.71204 1.025l0.50863 0.63248 1.7293-0.56705c3.8045-1.2213 13.204-3.206 25.411-5.3433 44.107-7.7642 130.08-19.127 149.64-19.781l4.2521-0.13086-0.14244-3.9475c-0.24411-7.2408-1.2003-12.192-3.3975-17.666-0.34586-0.85057-0.73241-1.6575-0.87485-1.7666-0.1831-0.15267-0.34586-3.0315-0.58997-9.9015l-0.34591-9.6834-1.3834-1.6357c-5.5744-6.6083-7.08-10.163-7.3037-17.382l-0.10176-3.0533 1.5055-1.6357c2.3397-2.5735 3.4179-5.1907 3.4179-8.2658 0-1.9192-0.32553-3.4023-1.2003-5.387-0.61034-1.3958-0.63071-1.4176-2.299-2.2682-1.2817-0.65429-1.5462-0.87238-1.119-0.87238 0.54932 0 0.7731-0.37076 0.30517-0.54524-0.1424-0.04362-9.1958-1.1341-20.101-2.399-10.905-1.265-20.223-2.3554-20.691-2.4209l-0.85448-0.13085-0.40688-1.8974c-0.529-2.4645-1.0783-6.4556-1.8514-13.544-1.241-11.297-2.3397-16.684-4.2114-20.545-1.9734-4.0348-5.0862-5.9322-8.7076-5.2779zm-68.318 20.196c-0.06106 0.17447-0.12208 0.10904-0.12208-0.13086-0.02036-0.2399 0.0407-0.37076 0.10171-0.28352 0.06106 0.06542 0.08139 0.26171 0.02037 0.41438zm1.2614 7.3716c0.65103 5.0816 1.4038 14.285 1.2004 14.503-0.04069 0.06543-0.24415-1.8756-0.44757-4.3183-0.38655-4.8417-1.1596-11.646-1.648-14.547-0.16276-1.025-0.2848-2.0501-0.2848-2.29 0.0407-0.71971 0.73242 3.2496 1.18 6.6519zm77.127 14.634c-1.4444 0.69791-2.3193 1.723-2.9907 3.5768-0.34586 0.98143-0.30516 0.08724 0.04069-1.0032 0.1831-0.52343 0.56965-1.2432 0.87482-1.5921 0.61033-0.67609 1.9531-1.4394 2.5838-1.4394 0.24415 0 0.04069 0.19628-0.50863 0.45799zm-3.54 6.1067c-0.28484 1.6139-0.28484 1.6139-0.30516 0.50162-0.02033-0.89419 0.34586-2.3772 0.52895-2.181 0.02037 0.02181-0.08139 0.78514-0.22379 1.6793zm-179.28 3.6422c0.10171 0.17448-7.792 1.4394-7.9345 1.2868-0.08138-0.08724 6.6528-1.3958 7.3852-1.4394 0.24415-0.02182 0.48826 0.06542 0.54932 0.15266zm178.57 3.2278c-0.26448 1.0905-1.0172 2.8134-1.1597 2.639-0.04065-0.04362 0.14245-0.61066 0.42724-1.265 0.28485-0.65429 0.56969-1.5049 0.63071-1.8974 0.08138-0.39257 0.18313-0.67609 0.22378-0.61067 0.06106 0.06544 0 0.56705-0.12207 1.1341zm-125.91 3.4241c2.7466 1.0687 4.72 3.0751 5.6355 5.7359 0.36618 1.0032 1.058 4.8199 1.0172 5.5832 0 0.15267-0.26452-0.58886-0.59001-1.6357-1.2207-3.9257-3.2348-7.3062-5.1066-8.5711-0.40688-0.26171-1.2207-0.65429-1.7903-0.87238-0.56969-0.19629-1.0376-0.43619-1.0376-0.54524 0-0.30533 0.50863-0.2399 1.8717 0.30534zm60.933 4.58c2.7058 0.28353 4.9844 0.56705 5.0455 0.63248 0.06102 0.06543-0.32553 0.08724-0.85448 0.04362-0.54932-0.04362-3.0517-0.15267-5.5948-0.21809-4.3741-0.13086-4.6386-0.15267-4.6386-0.54524 0-0.52343-0.1424-0.52343 6.0424 0.08723zm15.665 0.61067c-0.4883 0.30534-1.6683 0.6761-1.4852 0.458 0.16277-0.17447 1.3428-0.65428 1.648-0.67609 0.12203 0 0.04069 0.08723-0.16277 0.21809zm26.082 14.351c-0.10171 1.6139-0.22378 2.9879-0.30517 3.0533-0.08138 0.06543-0.08138-0.93781 0-2.2464 0.06106-1.3086 0.14245-3.1842 0.14245-4.1438 0.04069-1.6793 0.04069-1.7011 0.18309-0.6761 0.10171 0.58886 0.08138 2.399-0.02037 4.013zm-20.019-3.9911c-0.32553 0.04362-4.72 0.37076-9.7655 0.74152-5.0252 0.37076-14.323 1.0687-20.63 1.5485-6.3069 0.47981-11.617 0.82877-11.8 0.80696-0.91555-0.2181 22.359-2.1155 34.159-2.7916 2.299-0.13086 4.4555-0.26171 4.781-0.30533 0.34586-0.04362 1.3428-0.06544 2.2379-0.06544s1.3631 0.04362 1.0172 0.06544zm-140.54 0.65428c-0.06102 0.06543-0.24411 0.08724-0.38655 0.02181-0.16277-0.06543-0.10171-0.13086 0.12207-0.13086 0.22379-0.02181 0.34586 0.04362 0.26448 0.10905zm21.423 2.5953c10.356 1.265 19.836 2.4209 21.057 2.5517 1.241 0.13086 2.2989 0.28352 2.3803 0.37076 0.18309 0.17448-9.3586-0.28352-13.163-0.61067-4.0689-0.37076-9.379-1.025-13.407-1.6793-3.662-0.56705-16.744-2.8134-17.619-3.0097-1.3021-0.28352 3.3365 0.23991 20.752 2.3772zm45.674-0.54523 1.0173 0.458-0.8138-0.13086c-0.44757-0.08724-0.95619-0.28352-1.119-0.458-0.38655-0.39257-0.28485-0.39257 0.9155 0.13086zm-14.547 3.4895c0 0.43619-0.40688 0.19629-1.4648-0.89419l-1.0783-1.0905 1.2817 0.89418c0.69172 0.47981 1.2614 0.98143 1.2614 1.0905zm180.42 4.689c0.18309 0.2399-0.02037 0.08723-0.44761-0.34896-0.46793-0.47981-0.73241-0.91599-0.63066-1.0687 0.10171-0.15267 0.24411-0.04362 0.44757 0.37076 0.16277 0.32714 0.44761 0.80695 0.6307 1.0469zm-7.1817 1.6357c0.32549 0.15267 0.2848 0.19629-0.28484 0.19629-0.38655 0.02181-11.474 1.1995-24.617 2.639-13.163 1.4394-27.079 2.9661-30.944 3.3805-3.8655 0.43619-7.3037 0.82877-7.6496 0.89419-0.36623 0.06543-0.69172 0.04362-0.77315-0.08723-0.06101-0.10905 0.3866-0.26172 1.058-0.32715 0.6307-0.08723 8.3414-0.9378 17.13-1.9192 8.789-0.95962 22.379-2.4863 30.212-3.3587 15.259-1.7011 15.259-1.7011 15.869-1.4176zm-76.395 8.2876c0 0.10905-0.06106 0.2181-0.14244 0.2181-0.10171 0-7.2631 0.78514-15.93 1.7448-8.6669 0.93781-23.458 2.5735-32.857 3.5986-9.3993 1.025-18.819 2.0719-20.935 2.29-2.1158 0.2399-3.9062 0.39257-3.9469 0.32714-0.06101-0.06543-0.02032-0.10905 0.10176-0.10905 0.12207 0 0.56964-0.17447 0.99688-0.37076 0.61034-0.28352 9.3382-1.265 36.295-4.122 19.531-2.0501 35.705-3.7512 35.97-3.773 0.24415 0 0.44761 0.06543 0.44761 0.19629zm87.015 6.2593c-0.06106 0.2181-0.10175 0.08724-0.10175-0.26171 0-0.37076 0.04069-0.52343 0.10175-0.39258 0.0407 0.15267 0.0407 0.45801 0 0.65429zm0.85445 5.7141c0.02036 0.04362 0.95624 0.02181 2.0752-0.02181 1.1393-0.04362 1.8921-0.02181 1.6886 0.06543-0.50862 0.19628-29.907 3.7512-30.192 3.6422-0.1424-0.04362 5.4727-0.78515 12.451-1.6575 6.9782-0.87238 12.899-1.6357 13.183-1.7011l0.52895-0.10905-0.26447-2.0065c-0.36619-3.1188-0.26448-3.8603 0.16276-0.916 0.20346 1.4394 0.36619 2.6608 0.36619 2.7044zm-162.27-0.30534c0.10171 2.5517 0.10171 2.639-0.06106 0.87239-0.32549-3.5332-0.34586-4.0566-0.20342-3.8821 0.10171 0.08724 0.20342 1.4394 0.26448 3.0097zm0.2848 4.9508c-0.0407 0.28352-0.08139 0.10904-0.08139-0.37077-0.02032-0.47981 0.02037-0.6979 0.08139-0.50162 0.04069 0.2181 0.04069 0.61067 0 0.87239zm134.91-0.76334c-0.20346 0.04362-0.56964 0.04362-0.81379 0-0.26448-0.04362-0.10171-0.08724 0.34586-0.08724 0.44757-0.02181 0.65103 0.02181 0.46793 0.08724zm-1.831 0.2181c-0.20346 0.04361-0.56969 0.04361-0.81384 0-0.26448-0.04362-0.10171-0.08724 0.3459-0.08724 0.44757-0.02181 0.65103 0.02181 0.46794 0.08724zm-1.7293 0.21809c-0.1424 0.04362-0.42725 0.04362-0.61034 0-0.20346-0.06543-0.08138-0.10904 0.24415-0.10904 0.34586 0 0.48826 0.04361 0.36619 0.10904zm-2.0345 0.2181c-0.1424 0.04361-0.42724 0.04361-0.61033 0-0.20346-0.06543-0.08139-0.10905 0.2441-0.10905 0.34591 0 0.48831 0.04362 0.36623 0.10905zm-1.5462 0.19629c-0.06102 0.06542-0.24416 0.08723-0.38656 0.0218-0.16276-0.06542-0.1017-0.13086 0.12208-0.13086 0.22378-0.0218 0.34586 0.04362 0.26448 0.10906z" style="fill:#d91212"/>
 <g id="g6551" transform="translate(1076.6 -158.26)">
  <rect id="rect6522" x="-266.2" y="262.81" width="137.34" height="271.29" rx="10" ry="10" style="fill:#3d9699;opacity:.98122;stroke-linejoin:round;stroke-miterlimit:4.1;stroke-width:3.3638;stroke:#0b2d5a"/>
  <rect id="rect6524" x="-263.17" y="285.05" width="110.6" height="110.3" rx="10" ry="10" style="fill:#3d9699;opacity:.98122;stroke-linejoin:round;stroke-miterlimit:4.1;stroke-width:3.3638;stroke:#0b2d5a"/>
  <rect id="rect6524-3" x="-263.38" y="399.28" width="110.6" height="110.3" rx="10" ry="10" style="fill:#3d9699;opacity:.98122;stroke-linejoin:round;stroke-miterlimit:4.1;stroke-width:3.3638;stroke:#0b2d5a"/>
 </g>
</svg>
