{
    "asset" : {
        "generator" : "Khronos glTF Blender I/O v1.4.40",
        "version" : "2.0"
    },
    "scene" : 0,
    "scenes" : [
        {
            "extras" : {
                "glTF2ExportSettings" : {
                    "export_extras" : 1,
                    "export_format" : "GLTF_EMBEDDED",
                    "use_selection" : 1
                }
            },
            "name" : "Scene",
            "nodes" : [
                4
            ]
        }
    ],
    "nodes" : [
        {
            "mesh" : 0,
            "name" : "#bloc",
            "translation" : [
                0,
                0,
                -0.20999997854232788
            ]
        },
        {
            "mesh" : 1,
            "name" : "#borne",
            "rotation" : [
                0,
                -0.7071068286895752,
                0,
                0.7071067094802856
            ],
            "translation" : [
                0,
                0.9256364107131958,
                -0.6899999976158142
            ]
        },
        {
            "mesh" : 2,
            "name" : "#corp",
            "rotation" : [
                0.7071068286895752,
                0,
                -0.7071068286895752,
                0
            ],
            "translation" : [
                0,
                0,
                0.3081989586353302
            ]
        },
        {
            "mesh" : 3,
            "name" : "#ventil",
            "rotation" : [
                0,
                0.7071068286895752,
                0,
                0.7071067094802856
            ],
            "translation" : [
                0,
                0,
                -1.9466416835784912
            ]
        },
        {
            "children" : [
                0,
                1,
                2,
                3
            ],
            "name" : "main",
            "translation" : [
                3.9595792293548584,
                0,
                -0.28080320358276367
            ]
        }
    ],
    "materials" : [
        {
            "doubleSided" : true,
            "name" : "Material_2.001",
            "pbrMetallicRoughness" : {
                "baseColorFactor" : [
                    1,
                    0,
                    0,
                    1
                ],
                "metallicFactor" : 0.5,
                "roughnessFactor" : 0.36000001430511475
            }
        },
        {
            "doubleSided" : true,
            "name" : "Material_3.001",
            "pbrMetallicRoughness" : {
                "baseColorFactor" : [
                    0.5670090317726135,
                    0.5670090317726135,
                    0.5670090317726135,
                    1
                ],
                "metallicFactor" : 0.5,
                "roughnessFactor" : 0.36000001430511475
            }
        }
    ],
    "meshes" : [
        {
            "name" : "63B5B.001",
            "primitives" : [
                {
                    "attributes" : {
                        "POSITION" : 0,
                        "NORMAL" : 1
                    },
                    "indices" : 2,
                    "material" : 0
                }
            ]
        },
        {
            "name" : "63B5_terminal_box B.001",
            "primitives" : [
                {
                    "attributes" : {
                        "POSITION" : 3,
                        "NORMAL" : 4
                    },
                    "indices" : 5,
                    "material" : 0
                }
            ]
        },
        {
            "name" : "63B5_front_housing_B.001",
            "primitives" : [
                {
                    "attributes" : {
                        "POSITION" : 6,
                        "NORMAL" : 7
                    },
                    "indices" : 8,
                    "material" : 0
                },
                {
                    "attributes" : {
                        "POSITION" : 9,
                        "NORMAL" : 10
                    },
                    "indices" : 11,
                    "material" : 1
                }
            ]
        },
        {
            "name" : "63B5B_brakes.001",
            "primitives" : [
                {
                    "attributes" : {
                        "POSITION" : 12,
                        "NORMAL" : 13
                    },
                    "indices" : 14,
                    "material" : 0
                }
            ]
        }
    ],
    "accessors" : [
        {
            "bufferView" : 0,
            "componentType" : 5126,
            "count" : 16626,
            "max" : [
                0.5962746739387512,
                0.6800000071525574,
                0
            ],
            "min" : [
                -0.5962746739387512,
                -0.5962746739387512,
                -1.1649999618530273
            ],
            "type" : "VEC3"
        },
        {
            "bufferView" : 1,
            "componentType" : 5126,
            "count" : 16626,
            "type" : "VEC3"
        },
        {
            "bufferView" : 2,
            "componentType" : 5123,
            "count" : 16626,
            "type" : "SCALAR"
        },
        {
            "bufferView" : 3,
            "componentType" : 5126,
            "count" : 378,
            "max" : [
                0.40000003576278687,
                0.26999998092651367,
                0.37000003457069397
            ],
            "min" : [
                -0.40000003576278687,
                0,
                -0.37000003457069397
            ],
            "type" : "VEC3"
        },
        {
            "bufferView" : 4,
            "componentType" : 5126,
            "count" : 378,
            "type" : "VEC3"
        },
        {
            "bufferView" : 5,
            "componentType" : 5123,
            "count" : 378,
            "type" : "SCALAR"
        },
        {
            "bufferView" : 6,
            "componentType" : 5126,
            "count" : 4230,
            "max" : [
                0.08000000566244125,
                0.7000001668930054,
                0.7000000476837158
            ],
            "min" : [
                -0.10000000894069672,
                -0.7000001668930054,
                -0.7000000476837158
            ],
            "type" : "VEC3"
        },
        {
            "bufferView" : 7,
            "componentType" : 5126,
            "count" : 4230,
            "type" : "VEC3"
        },
        {
            "bufferView" : 8,
            "componentType" : 5123,
            "count" : 4230,
            "type" : "SCALAR"
        },
        {
            "bufferView" : 9,
            "componentType" : 5126,
            "count" : 7818,
            "max" : [
                0.08000000566244125,
                0.7000001668930054,
                0.7000000476837158
            ],
            "min" : [
                -0.33000001311302185,
                -0.7000001668930054,
                -0.7000000476837158
            ],
            "type" : "VEC3"
        },
        {
            "bufferView" : 10,
            "componentType" : 5126,
            "count" : 7818,
            "type" : "VEC3"
        },
        {
            "bufferView" : 11,
            "componentType" : 5123,
            "count" : 7818,
            "type" : "SCALAR"
        },
        {
            "bufferView" : 12,
            "componentType" : 5126,
            "count" : 1197,
            "max" : [
                1.1500000953674316,
                0.6079999804496765,
                0.6080000400543213
            ],
            "min" : [
                0,
                -0.6079999804496765,
                -0.6080000400543213
            ],
            "type" : "VEC3"
        },
        {
            "bufferView" : 13,
            "componentType" : 5126,
            "count" : 1197,
            "type" : "VEC3"
        },
        {
            "bufferView" : 14,
            "componentType" : 5123,
            "count" : 1197,
            "type" : "SCALAR"
        }
    ],
    "bufferViews" : [
        {
            "buffer" : 0,
            "byteLength" : 199512,
            "byteOffset" : 0
        },
        {
            "buffer" : 0,
            "byteLength" : 199512,
            "byteOffset" : 199512
        },
        {
            "buffer" : 0,
            "byteLength" : 33252,
            "byteOffset" : 399024
        },
        {
            "buffer" : 0,
            "byteLength" : 4536,
            "byteOffset" : 432276
        },
        {
            "buffer" : 0,
            "byteLength" : 4536,
            "byteOffset" : 436812
        },
        {
            "buffer" : 0,
            "byteLength" : 756,
            "byteOffset" : 441348
        },
        {
            "buffer" : 0,
            "byteLength" : 50760,
            "byteOffset" : 442104
        },
        {
            "buffer" : 0,
            "byteLength" : 50760,
            "byteOffset" : 492864
        },
        {
            "buffer" : 0,
            "byteLength" : 8460,
            "byteOffset" : 543624
        },
        {
            "buffer" : 0,
            "byteLength" : 93816,
            "byteOffset" : 552084
        },
        {
            "buffer" : 0,
            "byteLength" : 93816,
            "byteOffset" : 645900
        },
        {
            "buffer" : 0,
            "byteLength" : 15636,
            "byteOffset" : 739716
        },
        {
            "buffer" : 0,
            "byteLength" : 14364,
            "byteOffset" : 755352
        },
        {
            "buffer" : 0,
            "byteLength" : 14364,
            "byteOffset" : 769716
        },
        {
            "buffer" : 0,
            "byteLength" : 2394,
            "byteOffset" : 784080
        }
    ],
    "buffers" : [
        {
            "byteLength" : 786476,
            "uri" : "data:application/octet-stream;base64,"
        }
    ]
}
