{
    "asset" : {
        "generator" : "Khronos glTF Blender I/O v1.4.40",
        "version" : "2.0"
    },
    "scene" : 0,
    "scenes" : [
        {
            "extras" : {
                "glTF2ExportSettings" : {
                    "export_extras" : 1,
                    "export_format" : "GLTF_EMBEDDED",
                    "use_selection" : 1
                }
            },
            "name" : "Scene",
            "nodes" : [
                0
            ]
        }
    ],
    "nodes" : [
        {
            "extras" : {
                "refSousEnsemble" : "moteur_stl.gltf"
            },
            "mesh" : 0,
            "name" : "#moteur",
            "translation" : [
                2.268589735031128,
                1.029939889907837,
                -3.6381795406341553
            ]
        }
    ],
    "meshes" : [
        {
            "name" : "Moteur",
            "primitives" : [
                {
                    "attributes" : {
                        "POSITION" : 0,
                        "NORMAL" : 1
                    },
                    "indices" : 2
                }
            ]
        }
    ],
    "accessors" : [
        {
            "bufferView" : 0,
            "componentType" : 5126,
            "count" : 15120,
            "max" : [
                1.4000672101974487,
                1.2717058658599854,
                0.789315402507782
            ],
            "min" : [
                -1.4200395345687866,
                -0.7999999523162842,
                -0.7892977595329285
            ],
            "type" : "VEC3"
        },
        {
            "bufferView" : 1,
            "componentType" : 5126,
            "count" : 15120,
            "type" : "VEC3"
        },
        {
            "bufferView" : 2,
            "componentType" : 5123,
            "count" : 16017,
            "type" : "SCALAR"
        }
    ],
    "bufferViews" : [
        {
            "buffer" : 0,
            "byteLength" : 181440,
            "byteOffset" : 0
        },
        {
            "buffer" : 0,
            "byteLength" : 181440,
            "byteOffset" : 181440
        },
        {
            "buffer" : 0,
            "byteLength" : 32034,
            "byteOffset" : 362880
        }
    ],
    "buffers" : [
        {
            "byteLength" : 394916,
            "uri" : "data:application/octet-stream;base64,"
        }
    ]
}
