<?xml version="1.0" standalone="no"?>
<!DOCTYPE svg PUBLIC "-//W3C//DTD SVG 20010904//EN"
 "http://www.w3.org/TR/2001/REC-SVG-20010904/DTD/svg10.dtd">
<svg version="1.0" xmlns="http://www.w3.org/2000/svg"
 width="1280.000000pt" height="716.000000pt" viewBox="0 0 1280.000000 716.000000"
 preserveAspectRatio="xMidYMid meet">
<metadata>
Created by potrace 1.15, written by Peter Selinger 2001-2017
</metadata>
<g transform="translate(0.000000,716.000000) scale(0.100000,-0.100000)"
fill="#000000" stroke="none">
<path d="M9345 7154 c-11 -2 -162 -10 -335 -19 -173 -8 -596 -29 -940 -45
-344 -17 -857 -42 -1140 -55 -283 -14 -625 -30 -760 -35 -135 -4 -263 -14
-285 -20 -22 -7 -56 -29 -76 -49 l-37 -37 -38 35 -37 34 -616 -7 c-339 -4
-780 -11 -981 -16 -782 -20 -1510 -10 -2025 26 -335 24 -487 28 -527 15 -19
-6 -46 -14 -59 -16 -331 -63 -572 -173 -715 -327 -59 -64 -91 -77 -264 -107
-147 -26 -230 -66 -321 -154 -37 -35 -84 -89 -107 -118 l-40 -54 58 -730 c32
-401 60 -751 63 -777 4 -43 0 -52 -36 -100 -160 -212 -166 -448 -16 -673 27
-40 74 -96 103 -123 l55 -49 43 -824 44 -824 -37 -33 c-72 -62 -93 -164 -104
-501 -8 -217 -24 -330 -59 -407 -31 -67 -32 -74 -8 -74 29 0 368 -86 572 -145
695 -201 1792 -581 2548 -884 84 -34 154 -61 157 -61 3 0 8 17 11 39 11 68 9
67 142 38 l120 -26 68 21 c65 19 69 19 79 3 5 -10 21 -31 35 -47 l25 -29 85
26 c187 56 649 147 1249 245 2168 356 6394 877 7355 907 l209 6 -7 181 c-12
332 -59 559 -167 810 -17 39 -36 76 -43 81 -9 7 -17 139 -29 454 l-17 444 -68
75 c-274 303 -348 466 -359 797 l-5 140 74 75 c115 118 168 238 168 379 0 88
-16 156 -59 247 -30 64 -31 65 -113 104 -63 30 -76 40 -55 40 27 0 38 17 15
25 -7 2 -452 52 -988 110 -536 58 -994 108 -1017 111 l-42 6 -20 87 c-26 113
-53 296 -91 621 -61 518 -115 765 -207 942 -97 185 -250 272 -428 242z m-3358
-926 c-3 -8 -6 -5 -6 6 -1 11 2 17 5 13 3 -3 4 -12 1 -19z m62 -338 c32 -233
69 -655 59 -665 -2 -3 -12 86 -22 198 -19 222 -57 534 -81 667 -8 47 -14 94
-14 105 2 33 36 -149 58 -305z m3791 -671 c-71 -32 -114 -79 -147 -164 -17
-45 -15 -4 2 46 9 24 28 57 43 73 30 31 96 66 127 66 12 0 2 -9 -25 -21z
m-174 -280 c-14 -74 -14 -74 -15 -23 -1 41 17 109 26 100 1 -1 -4 -36 -11 -77z
m-8812 -167 c5 -8 -383 -66 -390 -59 -4 4 327 64 363 66 12 1 24 -3 27 -7z
m8777 -148 c-13 -50 -50 -129 -57 -121 -2 2 7 28 21 58 14 30 28 69 31 87 4
18 9 31 11 28 3 -3 0 -26 -6 -52z m-6189 -157 c135 -49 232 -141 277 -263 18
-46 52 -221 50 -256 0 -7 -13 27 -29 75 -60 180 -159 335 -251 393 -20 12 -60
30 -88 40 -28 9 -51 20 -51 25 0 14 25 11 92 -14z m2995 -210 c133 -13 245
-26 248 -29 3 -3 -16 -4 -42 -2 -27 2 -150 7 -275 10 -215 6 -228 7 -228 25 0
24 -7 24 297 -4z m770 -28 c-24 -14 -82 -31 -73 -21 8 8 66 30 81 31 6 0 2 -4
-8 -10z m1282 -658 c-5 -74 -11 -137 -15 -140 -4 -3 -4 43 0 103 3 60 7 146 7
190 2 77 2 78 9 31 5 -27 4 -110 -1 -184z m-984 183 c-16 -2 -232 -17 -480
-34 -247 -17 -704 -49 -1014 -71 -310 -22 -571 -38 -580 -37 -45 10 1099 97
1679 128 113 6 219 12 235 14 17 2 66 3 110 3 44 0 67 -2 50 -3z m-6908 -30
c-3 -3 -12 -4 -19 -1 -8 3 -5 6 6 6 11 1 17 -2 13 -5z m1053 -119 c509 -58
975 -111 1035 -117 61 -6 113 -13 117 -17 9 -8 -460 13 -647 28 -200 17 -461
47 -659 77 -180 26 -823 129 -866 138 -64 13 164 -11 1020 -109z m2245 25 l50
-21 -40 6 c-22 4 -47 13 -55 21 -19 18 -14 18 45 -6z m-715 -160 c0 -20 -20
-9 -72 41 l-53 50 63 -41 c34 -22 62 -45 62 -50z m8868 -215 c9 -11 -1 -4 -22
16 -23 22 -36 42 -31 49 5 7 12 2 22 -17 8 -15 22 -37 31 -48z m-353 -75 c16
-7 14 -9 -14 -9 -19 -1 -564 -55 -1210 -121 -647 -66 -1331 -136 -1521 -155
-190 -20 -359 -38 -376 -41 -18 -3 -34 -2 -38 4 -3 5 19 12 52 15 31 4 410 43
842 88 432 44 1100 114 1485 154 750 78 750 78 780 65z m-3755 -380 c0 -5 -3
-10 -7 -10 -5 0 -357 -36 -783 -80 -426 -43 -1153 -118 -1615 -165 -462 -47
-925 -95 -1029 -105 -104 -11 -192 -18 -194 -15 -3 3 -1 5 5 5 6 0 28 8 49 17
30 13 459 58 1784 189 960 94 1755 172 1768 173 12 0 22 -3 22 -9z m4277 -287
c-3 -10 -5 -4 -5 12 0 17 2 24 5 18 2 -7 2 -21 0 -30z m42 -262 c1 -2 47 -1
102 1 56 2 93 1 83 -3 -25 -9 -1470 -172 -1484 -167 -7 2 269 36 612 76 343
40 634 75 648 78 l26 5 -13 92 c-18 143 -13 177 8 42 10 -66 18 -122 18 -124z
m-7976 14 c5 -117 5 -121 -3 -40 -16 162 -17 186 -10 178 5 -4 10 -66 13 -138z
m14 -227 c-2 -13 -4 -5 -4 17 -1 22 1 32 4 23 2 -10 2 -28 0 -40z m6631 35
c-10 -2 -28 -2 -40 0 -13 2 -5 4 17 4 22 1 32 -1 23 -4z m-90 -10 c-10 -2 -28
-2 -40 0 -13 2 -5 4 17 4 22 1 32 -1 23 -4z m-85 -10 c-7 -2 -21 -2 -30 0 -10
3 -4 5 12 5 17 0 24 -2 18 -5z m-100 -10 c-7 -2 -21 -2 -30 0 -10 3 -4 5 12 5
17 0 24 -2 18 -5z m-76 -9 c-3 -3 -12 -4 -19 -1 -8 3 -5 6 6 6 11 1 17 -2 13
-5z"/>
</g>
</svg>
